# xmcd
#
# Track frame offsets:
#  150
#  19680
#  39492
#  56606
#  82646
#  100440
#  121504
#  141532
#  162545
#  184186
#  201234
#  220702
#  241015
#  258118
#  277558
#
# Disc length: 4299 seconds
#
# Revision: 0
# Processed by: cddbd v1.4PL0 Copyright (c) Steve Scherf et al.
# Submitted via: AltoMP3_Maker 3.0
#
DISCID=c010c90f
DTITLE=Marc Anthony - Marc Anthony
DYEAR=1900
DGENRE=
TTITLE0=When I Dream at Night
TTITLE1=Am I the Only One
TTITLE2=I Need to Know
TTITLE3=You Sang to Me
TTITLE4=My Baby You
TTITLE5=No One
TTITLE6=How Could I
TTITLE7=That's Okay
TTITLE8=Don't Let Me Leave
TTITLE9=Remember Me
TTITLE10=She's Been Good to Me
TTITLE11=Love Is All
TTITLE12=Dimelo [I Need to Know]
TTITLE13=Como Ella Me Quiere a Mi [She's Been Good to Me]
TTITLE14=Da la Vuelta
EXTD=
EXTT0=
EXTT1=
EXTT2=
EXTT3=
EXTT4=
EXTT5=
EXTT6=
EXTT7=
EXTT8=
EXTT9=
EXTT10=
EXTT11=
EXTT12=
EXTT13=
EXTT14=
PLAYORDER=
